<svg width="39" height="30" viewBox="0 0 39 30" fill="none" xmlns="http://www.w3.org/2000/svg">
<g filter="url(#filter0_d_27001_584)">
<g clip-path="url(#clip0_27001_584)">
<path d="M34.3 7L30.8 7.2L27.6 2.3C27.5 2.1 27.2 2 27 2C26.8 2 26.5 2.1 26.4 2.3L23.2 7.2H19.7C19.3 7.2 19 7.5 19 7.9C19 8 19 8 19 8.1L20.9 14.9C21.1 15.6 21.6 16 22.3 16H31.7C32.4 16 32.9 15.6 33.1 14.9L35 8C35 7.9 35 7.9 35 7.8C35 7.4 34.7 7 34.3 7ZM27 3.9L29.2 7.1H24.9L27 3.9Z" fill="black"/>
</g>
<circle cx="14.5" cy="11" r="10.5" fill="white"/>
<path d="M11.3996 15.5C11.3063 15.5 11.2269 15.472 11.1616 15.416C11.1056 15.3507 11.0776 15.2713 11.0776 15.178V14.73C11.0776 14.646 11.1009 14.5527 11.1476 14.45C11.1943 14.3473 11.2876 14.2353 11.4276 14.114L14.3956 11.146C14.8716 10.7447 15.2449 10.404 15.5156 10.124C15.7956 9.83467 15.9916 9.55933 16.1036 9.298C16.2249 9.03667 16.2856 8.766 16.2856 8.486C16.2856 7.954 16.1363 7.534 15.8376 7.226C15.5389 6.90867 15.0956 6.75 14.5076 6.75C14.1343 6.75 13.8123 6.82933 13.5416 6.988C13.2709 7.13733 13.0563 7.34733 12.8976 7.618C12.7483 7.87933 12.6503 8.178 12.6036 8.514C12.5849 8.63533 12.5336 8.71933 12.4496 8.766C12.3749 8.81267 12.3049 8.836 12.2396 8.836H11.5116C11.4276 8.836 11.3576 8.81267 11.3016 8.766C11.2456 8.71 11.2176 8.64467 11.2176 8.57C11.2269 8.21533 11.3016 7.86067 11.4416 7.506C11.5816 7.142 11.7869 6.81533 12.0576 6.526C12.3376 6.23667 12.6783 6.00333 13.0796 5.826C13.4903 5.63933 13.9663 5.546 14.5076 5.546C15.2449 5.546 15.8469 5.68133 16.3136 5.952C16.7896 6.21333 17.1396 6.56333 17.3636 7.002C17.5876 7.44067 17.6996 7.92133 17.6996 8.444C17.6996 8.85467 17.6296 9.23267 17.4896 9.578C17.3496 9.914 17.1443 10.2453 16.8736 10.572C16.6123 10.8893 16.2856 11.216 15.8936 11.552L13.2056 14.282H17.5736C17.6763 14.282 17.7556 14.31 17.8116 14.366C17.8769 14.422 17.9096 14.5013 17.9096 14.604V15.178C17.9096 15.2713 17.8769 15.3507 17.8116 15.416C17.7556 15.472 17.6763 15.5 17.5736 15.5H11.3996Z" fill="black"/>
</g>
<defs>
<filter id="filter0_d_27001_584" x="0" y="0.5" width="39" height="29" filterUnits="userSpaceOnUse" color-interpolation-filters="sRGB">
<feFlood flood-opacity="0" result="BackgroundImageFix"/>
<feColorMatrix in="SourceAlpha" type="matrix" values="0 0 0 0 0 0 0 0 0 0 0 0 0 0 0 0 0 0 127 0" result="hardAlpha"/>
<feOffset dy="4"/>
<feGaussianBlur stdDeviation="2"/>
<feComposite in2="hardAlpha" operator="out"/>
<feColorMatrix type="matrix" values="0 0 0 0 0 0 0 0 0 0 0 0 0 0 0 0 0 0 0.25 0"/>
<feBlend mode="normal" in2="BackgroundImageFix" result="effect1_dropShadow_27001_584"/>
<feBlend mode="normal" in="SourceGraphic" in2="effect1_dropShadow_27001_584" result="shape"/>
</filter>
<clipPath id="clip0_27001_584">
<rect width="16" height="14" fill="white" transform="translate(19 2)"/>
</clipPath>
</defs>
</svg>
